<svg id="edPqfGi4CM21" height="270px" width="90px" xmlns="http://www.w3.org/2000/svg" xmlns:xlink="http://www.w3.org/1999/xlink" viewBox="0 0 140 400" shape-rendering="geometricPrecision" text-rendering="geometricPrecision"><style><![CDATA[#edPqfGi4CM22_to {animation: edPqfGi4CM22_to__to 4000ms linear infinite normal forwards}@keyframes edPqfGi4CM22_to__to { 0% {transform: translate(76.677429px,-74.048111px)} 50% {transform: translate(74.112426px,45.039227px)} 100% {transform: translate(76.677429px,-77.173479px)}} #edPqfGi4CM29_to {animation: edPqfGi4CM29_to__to 4000ms linear infinite normal forwards}@keyframes edPqfGi4CM29_to__to { 0% {transform: translate(43.380102px,77.175003px)} 75% {transform: translate(43.380102px,77.175003px)} 100% {transform: translate(43.380102px,77.175003px)}} #edPqfGi4CM213_to {animation: edPqfGi4CM213_to__to 4000ms linear infinite normal forwards}@keyframes edPqfGi4CM213_to__to { 0% {transform: translate(67.430199px,189.980003px)} 75% {transform: translate(67.430199px,189.980003px)} 100% {transform: translate(67.430199px,189.980003px)}}]]></style><defs><linearGradient id="edPqfGi4CM27-fill" x1="-22.5" y1="-144" x2="83.94" y2="103.52" spreadMethod="pad" gradientUnits="userSpaceOnUse" gradientTransform="translate(0 0)"><stop id="edPqfGi4CM27-fill-0" offset="0%" stop-color="#c2e0e3"/><stop id="edPqfGi4CM27-fill-1" offset="100%" stop-color="#1b2d3a"/></linearGradient><linearGradient id="edPqfGi4CM29-fill" x1="24.6601" y1="47.18" x2="68.9501" y2="83.05" spreadMethod="pad" gradientUnits="userSpaceOnUse" gradientTransform="translate(0 0)"><stop id="edPqfGi4CM29-fill-0" offset="0%" stop-color="#fff"/><stop id="edPqfGi4CM29-fill-1" offset="100%" stop-color="#d3ddde"/></linearGradient><linearGradient id="edPqfGi4CM210-fill" x1="117.71" y1="54.47" x2="71.58" y2="77.99" spreadMethod="pad" gradientUnits="userSpaceOnUse" gradientTransform="translate(0 0)"><stop id="edPqfGi4CM210-fill-0" offset="0%" stop-color="#e5e9ea"/><stop id="edPqfGi4CM210-fill-1" offset="100%" stop-color="#b5bebf"/></linearGradient><linearGradient id="edPqfGi4CM211-fill" x1="40" y1="44" x2="161.5" y2="154" spreadMethod="pad" gradientUnits="userSpaceOnUse" gradientTransform="translate(0 0)"><stop id="edPqfGi4CM211-fill-0" offset="0%" stop-color="#1b2d3a"/><stop id="edPqfGi4CM211-fill-1" offset="100%" stop-color="#80abc7"/></linearGradient><linearGradient id="edPqfGi4CM212-fill" x1="98.5699" y1="69.17" x2="19.5" y2="102" spreadMethod="pad" gradientUnits="userSpaceOnUse" gradientTransform="translate(0 0)"><stop id="edPqfGi4CM212-fill-0" offset="0%" stop-color="#1b2d3a"/><stop id="edPqfGi4CM212-fill-1" offset="100%" stop-color="#80abc7"/></linearGradient><radialGradient id="edPqfGi4CM213-fill" cx="0" cy="0" r="1" spreadMethod="pad" gradientUnits="userSpaceOnUse" gradientTransform="matrix(16.08 0 0 16.08 59.3302 195)"><stop id="edPqfGi4CM213-fill-0" offset="0%" stop-color="#c79f8c"/><stop id="edPqfGi4CM213-fill-1" offset="100%" stop-color="#a37c6a"/></radialGradient><linearGradient id="edPqfGi4CM214-fill" x1="54.1903" y1="178.23" x2="78.6202" y2="178.23" spreadMethod="pad" gradientUnits="userSpaceOnUse" gradientTransform="translate(0 0)"><stop id="edPqfGi4CM214-fill-0" offset="0%" stop-color="#c79f8c"/><stop id="edPqfGi4CM214-fill-1" offset="100%" stop-color="#ac8370"/></linearGradient></defs><g id="edPqfGi4CM22_to" transform="translate(76.677429,-74.048111)"><g transform="translate(-72.564989,140.483212)"><path d="M56.7801,177.17c-.1609.001-.3164-.058-.4365-.165s-.1962-.255-.2135-.415l-2.85-23.12c-.0111-.085-.0052-.172.0175-.255s.0617-.161.1147-.229.1191-.125.1943-.167c.0751-.042.1579-.069.2436-.079.0856-.012.173-.007.2567.015s.162.061.2303.114c.0682.053.1249.12.1667.196s.0677.159.0762.245l2.8501,23.12c.0111.086.0052.172-.0175.256-.0227.083-.0617.161-.1147.229-.0531.067-.1191.124-.1942.166-.0752.043-.158.069-.2436.079l-.0801.01Z" fill="#fff"/><path d="M78.0901,177.17h-.08c-.0857-.01-.1685-.037-.2436-.079s-.1412-.099-.1942-.167c-.0531-.068-.0921-.145-.1148-.229-.0227-.083-.0286-.17-.0174-.255l2.85-23.09c.0085-.086.0345-.17.0762-.246.0418-.075.0985-.142.1668-.195.0682-.054.1466-.092.2303-.115.0837-.022.171-.027.2567-.014.0856.01.1684.037.2436.079s.1411.099.1942.167.092.145.1147.229c.0227.083.0287.17.0175.255l-2.81,23.08c-.0177.167-.0995.321-.2282.429s-.2941.162-.4618.151Z" fill="#fff"/><path d="M60.6902,177.17c-.1641.001-.3223-.061-.4428-.172-.1206-.112-.1946-.264-.2072-.428l-1.8-23.13c-.0082-.086.001-.172.0269-.254.026-.082.0682-.158.1242-.223.0561-.066.1247-.119.2018-.157.0772-.039.1612-.061.2471-.066.1719-.011.3413.046.4721.158s.2126.271.2279.442l1.8,23.12c.0139.174-.0414.346-.1538.479s-.2727.216-.4462.231h-.05Z" fill="#fff"/><path d="M74.1803,177.17c-.1735-.015-.3339-.098-.4463-.231s-.1676-.305-.1538-.479l1.8-23.12c.0133-.172.0945-.332.2258-.445.1313-.112.3018-.168.4742-.155s.3325.095.445.226c.1126.131.1683.302.1551.474l-1.8001,23.13c-.0063.086-.0295.169-.0681.245-.0387.077-.0921.145-.1571.201-.0651.056-.1405.098-.2219.124-.0815.027-.1674.037-.2528.03Z" fill="#fff"/><path d="M67.44,0C38.6,0,0,18.45,0,66.26c0,45.29,51.35,57.12,51.35,88.09h16.09L67.44,0Z" fill="url(#edPqfGi4CM27-fill)"/><path d="M67.4399,0C96.2699,0,134.87,18.45,134.87,66.26c0,45.29-51.35,57.12-51.35,88.09h-16.0801v-154.35Z" fill="#1b2d3a"/><g id="edPqfGi4CM29_to" transform="translate(43.380102,77.175003)"><path d="M67.4401,0c-20.58,0-48.12,18.45-48.12,66.26c0,45.29,36.64,57.12,36.64,88.09h11.48v-154.35Z" transform="translate(-43.380102,-77.175003)" fill="url(#edPqfGi4CM29-fill)"/></g><path d="M67.4399,0C88.0099,0,115.55,18.45,115.55,66.26c0,45.29-36.64,57.12-36.64,88.09h-11.4701v-154.35Z" transform="translate(-.0097-.377839)" fill="url(#edPqfGi4CM210-fill)"/><path d="M67.4402,0c-11.55,0-27,18.45-27,66.26c0,45.29,20.57,57.12,20.57,88.09h6.44L67.4402,0Z" fill="url(#edPqfGi4CM211-fill)"/><path d="M67.4399,0c11.54,0,27,18.45,27,66.26c0,45.29-20.56,57.12-20.56,88.09h-6.44v-154.35Z" transform="translate(0-.616342)" fill="url(#edPqfGi4CM212-fill)"/><g id="edPqfGi4CM213_to" transform="translate(67.430199,189.980003)"><path d="M71.4001,202.25h-7.9299c-2.5302,0-4.9567-1.005-6.7458-2.794s-2.7942-4.216-2.7942-6.746v-15h27v15c0,2.529-1.0038,4.954-2.7907,6.742-1.787,1.789-4.2109,2.796-6.7394,2.798Z" transform="translate(-67.430199,-189.980003)" fill="url(#edPqfGi4CM213-fill)"/></g><path d="M83.8502,175.41h-32.8199v5.63h32.8199v-5.63Z" fill="url(#edPqfGi4CM214-fill)"/><g style="mix-blend-mode:multiply" opacity="0.5"><path d="M81,186.98v-4.98h-27v4.98h27Z" fill="#471f00"/></g></g></g></svg>