<svg id="eZpC6TDjV1i1" width="90px" height="130px" xmlns="http://www.w3.org/2000/svg" xmlns:xlink="http://www.w3.org/1999/xlink" viewBox="0 0 73 160" shape-rendering="geometricPrecision" text-rendering="geometricPrecision"><style><![CDATA[#eZpC6TDjV1i2_to {animation: eZpC6TDjV1i2_to__to 4000ms linear infinite normal forwards}@keyframes eZpC6TDjV1i2_to__to { 0% {transform: translate(36.5px,91.991091px)} 50% {transform: translate(36.5px,41.124065px)} 100% {transform: translate(36.249716px,91.991091px)}}]]></style><defs><linearGradient id="eZpC6TDjV1i7-fill" x1="11.19" y1="19.26" x2="45.28" y2="55.85" spreadMethod="pad" gradientUnits="userSpaceOnUse" gradientTransform="translate(0 0)"><stop id="eZpC6TDjV1i7-fill-0" offset="0%" stop-color="#eb96a7"/><stop id="eZpC6TDjV1i7-fill-1" offset="100%" stop-color="#e17b83"/></linearGradient><linearGradient id="eZpC6TDjV1i8-fill" x1="68.3599" y1="23.21" x2="39.6999" y2="42.31" spreadMethod="pad" gradientUnits="userSpaceOnUse" gradientTransform="translate(0 0)"><stop id="eZpC6TDjV1i8-fill-0" offset="0%" stop-color="#df6d87"/><stop id="eZpC6TDjV1i8-fill-1" offset="100%" stop-color="#a73844"/></linearGradient><linearGradient id="eZpC6TDjV1i9-fill" x1="13.2999" y1="25.46" x2="37.1899" y2="44.8" spreadMethod="pad" gradientUnits="userSpaceOnUse" gradientTransform="translate(0 0)"><stop id="eZpC6TDjV1i9-fill-0" offset="0%" stop-color="#fff"/><stop id="eZpC6TDjV1i9-fill-1" offset="100%" stop-color="#d7ddde"/></linearGradient><linearGradient id="eZpC6TDjV1i10-fill" x1="63.4999" y1="29.39" x2="38.6099" y2="42.07" spreadMethod="pad" gradientUnits="userSpaceOnUse" gradientTransform="translate(0 0)"><stop id="eZpC6TDjV1i10-fill-0" offset="0%" stop-color="#e5e9ea"/><stop id="eZpC6TDjV1i10-fill-1" offset="100%" stop-color="#bbbebf"/></linearGradient><linearGradient id="eZpC6TDjV1i11-fill" x1="16.8501" y1="37.53" x2="36.5701" y2="42.08" spreadMethod="pad" gradientUnits="userSpaceOnUse" gradientTransform="translate(0 0)"><stop id="eZpC6TDjV1i11-fill-0" offset="0%" stop-color="#df6d87"/><stop id="eZpC6TDjV1i11-fill-1" offset="100%" stop-color="#a73844"/></linearGradient><linearGradient id="eZpC6TDjV1i12-fill" x1="53.1699" y1="37.32" x2="34.8199" y2="42.58" spreadMethod="pad" gradientUnits="userSpaceOnUse" gradientTransform="translate(0 0)"><stop id="eZpC6TDjV1i12-fill-0" offset="0%" stop-color="#eb96a7"/><stop id="eZpC6TDjV1i12-fill-1" offset="100%" stop-color="#e17b83"/></linearGradient><radialGradient id="eZpC6TDjV1i13-fill" cx="0" cy="0" r="1" spreadMethod="pad" gradientUnits="userSpaceOnUse" gradientTransform="matrix(8.68 0 0 8.68 32.0098 105.2)"><stop id="eZpC6TDjV1i13-fill-0" offset="0%" stop-color="#c79f8c"/><stop id="eZpC6TDjV1i13-fill-1" offset="100%" stop-color="#a37c6a"/></radialGradient><linearGradient id="eZpC6TDjV1i16-fill" x1="29.23" y1="96.1501" x2="42.41" y2="96.1501" spreadMethod="pad" gradientUnits="userSpaceOnUse" gradientTransform="translate(0 0)"><stop id="eZpC6TDjV1i16-fill-0" offset="0%" stop-color="#c79f8c"/><stop id="eZpC6TDjV1i16-fill-1" offset="100%" stop-color="#ac8370"/></linearGradient></defs><g id="eZpC6TDjV1i2_to" transform="translate(36.5,91.991091)"><g transform="translate(-36.625134,-41.635)"><path d="M30.63,95.7302c-.1222-.0013-.24-.0464-.3317-.1272-.0918-.0807-.1515-.1918-.1683-.3128l-1.53-12.48c-.0079-.0657-.0027-.1323.0151-.196.0179-.0636.0481-.1232.0889-.1752s.0916-.0954.1493-.1278.1211-.0531.1867-.061.1322-.0028.1959.0151.1232.048.1752.0889c.052.0408.0955.0915.1279.1492s.0531.1211.061.1867l1.53,12.47c.0098.0652.0064.1317-.0101.1956-.0164.0638-.0456.1237-.0858.1759-.0401.0523-.0904.096-.1478.1284s-.1208.0528-.1863.0602l-.07.01Z" fill="#fff"/><path d="M42.1299,95.7301h-.07c-.1312-.0174-.2501-.0862-.3307-.1911-.0806-.105-.1163-.2376-.0993-.3689l1.53-12.47c.0074-.0658.0279-.1295.0601-.1874.0323-.0579.0757-.1088.1278-.1497.0522-.041.1119-.0712.1758-.0888.0638-.0177.1306-.0225.1963-.0141.1319.0175.2517.0859.3339.1905s.1203.2372.1061.3695l-1.54,12.48c-.0168.1185-.0754.227-.1653.3059s-.2051.1229-.3247.1241Z" fill="#fff"/><path d="M32.74,95.73c-.1276.0003-.2504-.0483-.3433-.1356-.093-.0874-.149-.207-.1567-.3344l-1-12.47c-.0055-.0657.0021-.1318.0223-.1946.0202-.0627.0526-.1209.0954-.1711s.095-.0914.1537-.1213c.0588-.0299.1229-.0479.1886-.0529.1321-.0084.2624.0348.3631.1207.1008.0858.1642.2075.1769.3392l1,12.48c.0083.1311-.0353.2601-.1214.3593s-.2077.1605-.3386.1708l-.04.0099Z" fill="#fff"/><path d="M40.0198,95.7301c-.0653-.0037-.1291-.0205-.1878-.0494s-.111-.0692-.1539-.1186c-.0429-.0493-.0755-.1068-.0958-.169s-.0279-.1278-.0225-.193l1-12.4799c.0106-.1326.0735-.2556.1748-.3419.1012-.0863.2326-.1288.3652-.1182.1327.0107.2556.0735.3418.1748.0863.1013.1288.2326.1182.3653l-1,12.47c-.005.0657-.023.1298-.0529.1885-.0299.0588-.0712.111-.1213.1538s-.1084.0751-.1712.0953-.1289.0278-.1946.0223Z" fill="#fff"/><path d="M36.38,0C20.82,0,0,10,0,35.75C0,60.18,27.7,66.56,27.7,83.27h8.68v-83.27Z" fill="url(#eZpC6TDjV1i7-fill)"/><path d="M36.3799,0c15.55,0,36.38,10,36.38,35.75c0,24.43-27.71,30.81-27.71,47.52h-8.67v-83.27Z" fill="url(#eZpC6TDjV1i8-fill)"/><path d="M36.3799,0c-11.1,0-26,10-26,35.75c0,24.43,19.77,30.81,19.77,47.52h6.19L36.3799,0Z" fill="url(#eZpC6TDjV1i9-fill)"/><path d="M36.3799,0c11.1,0,26,10,26,35.75c0,24.43-19.76,30.81-19.76,47.52h-6.19L36.3799,0Z" fill="url(#eZpC6TDjV1i10-fill)"/><path d="M36.3801,0c-6.23,0-14.57,10-14.57,35.75c0,24.43,11.09,30.81,11.09,47.52h3.48v-83.27Z" fill="url(#eZpC6TDjV1i11-fill)"/><path d="M36.3799,0c6.23,0,14.56,10,14.56,35.75c0,24.43-11.09,30.81-11.09,47.52h-3.47v-83.27Z" fill="url(#eZpC6TDjV1i12-fill)"/><path d="M38.5098,109.08h-4.27c-1.3641,0-2.6725-.541-3.6381-1.505-.9655-.963-1.5092-2.271-1.5119-3.635v-8.1099h14.5701v8.1099c0,.676-.1333,1.345-.3923,1.969-.2589.625-.6384,1.192-1.1168,1.669-.4783.478-1.0461.856-1.6709,1.114-.6247.257-1.2942.389-1.9701.388Z" fill="url(#eZpC6TDjV1i13-fill)"/><g style="mix-blend-mode:multiply" opacity="0.5"><path d="M43.6599,100.36v-2.6898h-14.5701v2.6898h14.5701Z" fill="#471f00"/></g><path d="M45.23,94.6301h-17.7v3.04h17.7v-3.04Z" fill="url(#eZpC6TDjV1i16-fill)"/></g></g></svg>